<?xml version="1.0" encoding="UTF-8"?>
<svg version="1.1" xmlns="http://www.w3.org/2000/svg" width="200" height="200">
<path d="M0 0 C66 0 132 0 200 0 C200 66 200 132 200 200 C134 200 68 200 0 200 C1.17741935 192.93548387 1.17741935 192.93548387 4 190 C4.66 190 5.32 190 6 190 C6.433125 188.88625 6.433125 188.88625 6.875 187.75 C7.82302644 185.43260203 8.84845911 183.22082885 10 181 C10.66 181 11.32 181 12 181 C12.495 179.02 12.495 179.02 13 177 C13.66 177 14.32 177 15 177 C15.23074219 176.48050781 15.46148437 175.96101562 15.69921875 175.42578125 C17.45826108 172.14540501 19.62981045 169.19311816 21.8125 166.1875 C22.23853516 165.59646484 22.66457031 165.00542969 23.10351562 164.39648438 C23.9629201 163.20423943 24.8250585 162.01396034 25.68994141 160.82568359 C26.59901354 159.55881043 27.4908213 158.27944001 28.36865234 156.99072266 C29.53232988 155.29410216 30.76122302 153.64258883 32 152 C32.66 152 33.32 152 34 152 C34.33 150.68 34.66 149.36 35 148 C35.66 148 36.32 148 37 148 C37.33 146.68 37.66 145.36 38 144 C38.66 144 39.32 144 40 144 C41.20628008 141.66785852 42.1654738 139.50357861 43 137 C43.66 137 44.32 137 45 137 C45.33 135.68 45.66 134.36 46 133 C46.66 133 47.32 133 48 133 C48.33 131.68 48.66 130.36 49 129 C49.66 129 50.32 129 51 129 C51.2475 128.29875 51.495 127.5975 51.75 126.875 C53.17180238 123.60485452 54.87246288 120.858878 57 118 C57.66 118 58.32 118 59 118 C59.28875 117.4225 59.5775 116.845 59.875 116.25 C60.91666667 114.16666667 61.95833333 112.08333333 63 110 C63.66 110 64.32 110 65 110 C65.268125 109.278125 65.53625 108.55625 65.8125 107.8125 C66.990626 105.02220157 68.4188404 102.57750674 70 100 C69.32453125 99.13117188 68.6490625 98.26234375 67.953125 97.3671875 C67.05197828 96.20320632 66.15094253 95.03913923 65.25 93.875 C64.58484375 93.02035156 64.58484375 93.02035156 63.90625 92.1484375 C56 81.91681985 56 81.91681985 56 79 C55.34 79 54.68 79 54 79 C51.70351351 76.4385343 51 75.52032428 51 72 C50.34 72 49.68 72 49 72 C48.67 70.68 48.34 69.36 48 68 C47.34 68 46.68 68 46 68 C45.443125 66.96875 44.88625 65.9375 44.3125 64.875 C42.82518585 62.24687859 41.22712294 59.9687957 39.25 57.6875 C37 55 37 55 37 53 C36.34 53 35.68 53 35 53 C30.71428571 45.57142857 30.71428571 45.57142857 29 42 C28.34 42 27.68 42 27 42 C23 36.58823529 23 36.58823529 23 34 C22.34 34 21.68 34 21 34 C19.76337138 32.25588699 18.60897865 30.45293515 17.5 28.625 C15.05783493 24.57056853 15.05783493 24.57056853 12 21 C12 20.01 12 19.02 12 18 C11.01 17.67 10.02 17.34 9 17 C7.09452847 14.83891643 5.57783126 12.40772952 4 10 C3.4225 9.13375 2.845 8.2675 2.25 7.375 C1 5 1 5 0 0 Z " fill="#FF0035" transform="translate(0,0)"/>
<path d="M0 0 C20.46 0 40.92 0 62 0 C62 20.13 62 40.26 62 61 C41.54 61 21.08 61 0 61 C0 40.87 0 20.74 0 0 Z " fill="#FFF4F6" transform="translate(105,71)"/>
<path d="M0 0 C2 0 2 0 4.375 2.25 C5.24125 3.1575 6.1075 4.065 7 5 C7.763125 5.721875 8.52625 6.44375 9.3125 7.1875 C11 9 11 9 11 11 C11.53625 11.226875 12.0725 11.45375 12.625 11.6875 C15.87720486 13.48477111 18.29921515 15.4219781 21 18 C21 22 21 22 19.390625 23.74609375 C18.68421875 24.30425781 17.9778125 24.86242187 17.25 25.4375 C14.06373657 28.0588231 11.44152212 30.64290708 9 34 C11.475 35.98 11.475 35.98 14 38 C14.47421387 37.5153125 14.94842773 37.030625 15.43701172 36.53125 C17.57781737 34.34900263 19.72626868 32.17444263 21.875 30 C22.62136719 29.236875 23.36773437 28.47375 24.13671875 27.6875 C24.85214844 26.965625 25.56757813 26.24375 26.3046875 25.5 C26.96452637 24.8296875 27.62436523 24.159375 28.30419922 23.46875 C30 22 30 22 32 22 C29.97377976 17.02655032 26.16329948 13.94054 22.0625 10.625 C18.61246097 7.81120193 15.68770326 4.54548089 13 1 C13 0.67 13 0.34 13 0 C23.23 0 33.46 0 44 0 C44 13.86 44 27.72 44 42 C29.48 42 14.96 42 0 42 C0 28.14 0 14.28 0 0 Z " fill="#FF0235" transform="translate(114,80)"/>
<path d="M0 0 C2 0 2 0 4.375 2.25 C5.24125 3.1575 6.1075 4.065 7 5 C7.763125 5.721875 8.52625 6.44375 9.3125 7.1875 C11 9 11 9 11 11 C11.53625 11.226875 12.0725 11.45375 12.625 11.6875 C15.87720486 13.48477111 18.29921515 15.4219781 21 18 C21 22 21 22 19.390625 23.74609375 C18.68421875 24.30425781 17.9778125 24.86242187 17.25 25.4375 C14.06373657 28.0588231 11.44152212 30.64290708 9 34 C9.804375 34.61875 10.60875 35.2375 11.4375 35.875 C14 38 14 38 15 40 C28.86 40.495 28.86 40.495 43 41 C43 27.8 43 14.6 43 1 C33.76 1 24.52 1 15 1 C14.67 1.66 14.34 2.32 14 3 C13.67 2.01 13.34 1.02 13 0 C23.23 0 33.46 0 44 0 C44 13.86 44 27.72 44 42 C29.48 42 14.96 42 0 42 C0 28.14 0 14.28 0 0 Z " fill="#FF1342" transform="translate(114,80)"/>
</svg>
